 <svg  version="1.0" xmlns="http://www.w3.org/2000/svg"  width="300.000000pt" height="73.000000pt" viewBox="0 0 300.000000 73.000000"  preserveAspectRatio="xMidYMid meet">  <g transform="translate(0.000000,73.000000) scale(0.100000,-0.100000)" fill="#ff9e42" stroke="none"> <path d="M348 580 c-9 -14 -23 -48 -32 -76 -9 -28 -23 -60 -31 -70 -13 -19 -14 -19 -20 1 -4 11 -12 33 -17 48 l-11 29 -12 -36 c-7 -19 -28 -59 -47 -88 -53 -80 -58 -93 -58 -145 0 -33 8 -60 24 -87 l23 -38 36 65 c21 36 37 73 37 82 0 27 24 11 34 -23 5 -18 13 -32 18 -32 10 0 51 88 62 134 9 37 19 25 41 -46 10 -32 24 -66 31 -75 12 -17 13 -16 22 7 l10 25 11 -28 c6 -16 11 -33 11 -38 0 -13 31 -59 39 -59 16 0 41 74 41 120 0 34 -10 68 -34 119 -18 38 -37 80 -41 93 -7 21 -8 20 -12 -9 -2 -18 -10 -33 -17 -33 -17 0 -74 98 -84 145 l-8 40 -16 -25z m32 -114 c0 -17 51 -63 75 -68 45 -8 100 -171 65 -193 -5 -3 -10 -2 -10 4 0 15 -49 61 -64 61 -7 0 -18 17 -24 38 -14 46 -45 77 -67 68 -9 -3 -25 -26 -36 -52 -16 -35 -24 -44 -37 -39 -40 17 -50 9 -98 -71 -15 -26 -34 -8 -34 34 0 24 13 58 40 103 39 66 41 68 75 62 32 -5 36 -3 62 40 21 35 30 43 40 35 7 -6 13 -16 13 -22z"/> <path d="M1548 373 c2 -90 8 -163 14 -170 6 -7 26 -13 44 -13 26 0 34 4 34 18 0 13 -8 18 -27 17 l-28 0 -3 153 c-2 136 -4 152 -20 152 -15 0 -17 -14 -14 -157z"/> <path d="M2160 360 c0 -163 1 -170 20 -170 18 0 20 7 20 83 0 93 15 120 65 120 47 0 55 -18 55 -114 0 -82 2 -89 20 -89 19 0 20 7 20 94 0 94 0 94 -32 121 -26 22 -39 26 -66 21 -19 -3 -43 -13 -53 -22 -17 -16 -18 -14 -12 55 6 68 5 71 -16 71 -21 0 -21 -3 -21 -170z"/> <path d="M910 495 c0 -22 4 -26 23 -23 14 2 22 10 22 23 0 13 -8 21 -22 23 -19 3 -23 -1 -23 -23z"/> <path d="M650 345 l0 -155 105 0 c98 0 105 1 105 20 0 19 -7 20 -90 20 l-90 0 0 135 c0 113 -2 135 -15 135 -13 0 -15 -24 -15 -155z"/> <path d="M1283 479 c-58 -37 -81 -144 -46 -216 41 -87 170 -100 230 -23 36 45 -2 54 -45 10 -43 -42 -83 -41 -129 5 -34 34 -35 38 -31 96 6 78 37 114 99 114 33 0 46 -6 63 -28 19 -23 24 -25 38 -15 14 10 15 16 5 28 -41 53 -126 66 -184 29z"/> <path d="M1068 482 c-13 -3 -16 -10 -11 -33 5 -26 3 -29 -21 -29 -16 0 -26 -5 -26 -15 0 -9 9 -15 25 -15 25 0 25 -1 25 -90 0 -78 2 -91 19 -100 43 -22 109 -6 98 24 -5 13 -11 14 -31 4 -43 -19 -56 2 -56 88 l0 74 45 0 c33 0 45 4 45 15 0 11 -12 15 -44 15 -43 0 -45 1 -48 33 -2 24 -7 32 -20 29z"/> <path d="M1993 483 c-7 -2 -13 -18 -13 -34 0 -24 -4 -29 -25 -29 -18 0 -23 -4 -19 -15 4 -8 15 -15 25 -15 17 0 19 -8 19 -78 0 -96 14 -122 68 -122 45 0 65 11 56 33 -5 13 -10 14 -30 5 -40 -19 -54 3 -54 88 l0 74 45 0 c33 0 45 4 45 15 0 11 -12 15 -45 15 -45 0 -45 0 -45 35 0 35 -3 38 -27 28z"/> <path d="M1734 416 c-32 -14 -64 -67 -64 -105 0 -34 26 -87 51 -105 33 -23 100 -21 132 5 15 11 31 38 37 60 28 102 -64 187 -156 145z m116 -66 c16 -39 5 -95 -23 -115 -71 -50 -147 40 -104 125 24 48 105 42 127 -10z"/> <path d="M2495 421 c-35 -15 -57 -49 -62 -95 -10 -83 33 -136 107 -136 38 0 90 26 90 44 0 22 -22 24 -42 4 -18 -18 -53 -23 -83 -12 -14 6 -45 53 -45 69 0 3 41 5 90 5 89 0 90 0 90 25 0 74 -75 124 -145 96z m93 -49 c26 -34 15 -42 -59 -42 l-71 0 14 23 c30 45 87 54 116 19z"/> <path d="M2745 419 c-47 -27 -59 -73 -27 -102 10 -9 42 -21 71 -28 57 -12 75 -34 46 -55 -27 -20 -72 -17 -96 7 -20 20 -49 20 -49 -1 0 -19 64 -50 105 -50 55 0 85 22 85 64 0 42 -11 51 -80 68 -55 14 -75 37 -51 61 16 16 74 10 88 -9 12 -16 43 -13 43 4 0 34 -96 63 -135 41z"/> <path d="M910 305 c0 -108 1 -115 20 -115 19 0 20 7 20 115 0 108 -1 115 -20 115 -19 0 -20 -7 -20 -115z"/> </g> </svg> 